# xmcd
#
# Track frame offsets:
#	150
#	17692
#	32771
#	50769
#	67540
#	83788
#	96733
#	112285
#	127057
#	141071
#	158029
#
# Disc length: 2305 seconds
#
# Revision: 1
# Processed by: cddbd v1.5.2PL0 Copyright (c) Steve Scherf et al.
# Submitted via: audiograbber 1.83.01
#
DISCID=9708ff0b
DTITLE=Country Showcase - Strips And Spots 2000-2003
DYEAR=1900
DGENRE=
TTITLE0=A Night To Remember
TTITLE1=A Night To Forget
TTITLE2=I´m In Love With The Mother Of Anothers Man´s Child
TTITLE3=Beaches Of Marseilles
TTITLE4=So In Love
TTITLE5=Gronsky´s Party
TTITLE6=Bridge
TTITLE7=Alligator Alice
TTITLE8=Stripes Or Spots
TTITLE9=The Dance
TTITLE10=Sunshine Man
EXTD=
EXTT0=
EXTT1=
EXTT2=
EXTT3=
EXTT4=
EXTT5=
EXTT6=
EXTT7=
EXTT8=
EXTT9=
EXTT10=
PLAYORDER=
